<?xml version="1.0" encoding="UTF-8"?><svg id="Layer_1" xmlns="http://www.w3.org/2000/svg" viewBox="0 0 50.5 53.8"><path d="M47.2,.1H3C1.2,.1-.3,1.6-.3,3.4V50.4c0,1.8,1.5,3.3,3.3,3.3H47.1c1.8,0,3.3-1.5,3.3-3.3V3.4c0-1.8-1.4-3.3-3.2-3.3Z"/><path d="M8.23,40.3H42.27c0-1.6-1.1-2.94-2.58-3.33V20.12h.48c.56,0,1.02-.45,1.02-1.01s-.45-1.02-1.02-1.02h-2.72v-2.21s.05,0,.05,0c.66,0,1.19-.53,1.19-1.19s-.53-1.19-1.19-1.19h-6.02c-.66,0-1.19,.53-1.19,1.19s.53,1.19,1.19,1.19h.05v2.21h-3.32v-2.21h.05c.66,0,1.19-.53,1.19-1.19s-.54-1.19-1.19-1.19h-6.02c-.66,0-1.19,.53-1.19,1.19s.53,1.19,1.19,1.19h.04v2.21h-3.31v-2.21h.05c.66,0,1.19-.53,1.19-1.19,0-.66-.54-1.19-1.19-1.19h-6.02c-.66,0-1.19,.53-1.19,1.19s.53,1.19,1.19,1.19h.05v2.21h-2.72c-.56,0-1.01,.46-1.01,1.02s.45,1.01,1.01,1.01h.48v16.86c-1.48,.39-2.58,1.72-2.58,3.33h0ZM32.96,15.88h3.06v6.96h-3.06v-6.96Zm-9.24,0h3.06v6.96h-3.06v-6.96Zm-9.24,0h3.06v6.96h-3.06v-6.96Zm-2.23,4.24h.8v12.38c0,1.63,1.33,2.96,2.96,2.96s2.96-1.33,2.96-2.96v-12.38h3.31v12.38c0,1.63,1.33,2.96,2.97,2.96s2.96-1.33,2.96-2.96v-12.38h3.32v12.38c0,1.63,1.33,2.96,2.96,2.96s2.96-1.33,2.96-2.96v-12.38h.8v16.73H12.25V20.12Z" style="fill:#fff;"/></svg>