<?xml version="1.0" encoding="UTF-8"?><svg id="Layer_1" xmlns="http://www.w3.org/2000/svg" viewBox="0 0 50.5 53.8"><path d="M47.2,.1H3C1.2,.1-.3,1.6-.3,3.4V50.4c0,1.8,1.5,3.3,3.3,3.3H47.1c1.8,0,3.3-1.5,3.3-3.3V3.4c0-1.8-1.4-3.3-3.2-3.3Z"/><path d="M33.89,9.87c-1.57-.63-3.39-.55-5.12-.47-.38,0-.76,.04-1.14,.04-2.79,0-3.94,1.1-4.36,1.95-.3-.08-.59-.08-.93,0-.76,.17-1.48,.72-1.99,1.57-.85,1.4-.72,3.05,.3,3.72,.3,.21,.63,.3,.97,.3,.13,0,.3,0,.47-.04,.76-.17,1.48-.76,1.99-1.57,.68-1.14,.76-2.37,.21-3.22,.21-.47,.93-1.4,3.34-1.4h.04c.38,0,.8-.04,1.19-.04,1.61-.08,3.3-.17,4.61,.38,2.96,1.23,4.32,5.16,4.32,8.51,0,2.37-.63,4.61-1.78,6.31-2.12,3.09-6.77,2.84-10.5,2.58-.42-.04-.85-.04-1.27-.08v-.55c6.35-.25,11.39-4.02,11.39-8.68,0-.34-.3-.63-.63-.63H12.17c-.34,0-.63,.3-.63,.63,0,4.49,4.66,8.21,10.84,8.63,.17,0,.34,.04,.51,.04v.51h-2.79c-1.02,0-1.95,.47-2.62,1.31-.68,.8-1.06,1.86-1.06,3.01,0,2.37,1.65,4.32,3.68,4.32h2.79v3.17c-2.46,.21-4.28,1.78-4.28,3.64,0,.34,.3,.63,.63,.63h8.63c.34,0,.63-.3,.63-.63,0-.76-.3-1.48-.85-2.03l.25-.25c.51-.63,.8-1.48,.8-2.37,0-1.86-1.31-3.43-2.92-3.43h-1.65v-6.1c.38,0,.8,.04,1.19,.08,1.06,.04,2.16,.13,3.3,.13,3.17,0,6.43-.55,8.3-3.3,1.31-1.9,2.03-4.36,2.03-7.03,0-3.47-1.31-8.08-5.08-9.65h0Zm-16.17,22.81c0-.85,.25-1.61,.76-2.2,.47-.55,1.02-.85,1.65-.85h2.79v6.14h-2.79c-1.35,0-2.41-1.4-2.41-3.09h0Zm8.08,4.36c.89,0,1.65,.97,1.65,2.16,0,.59-.21,1.14-.51,1.57l-.25,.25c-.68-.42-1.57-.72-2.5-.8v-3.17h1.61Z" style="fill:#fff;"/></svg>