<?xml version="1.0" encoding="UTF-8"?><svg id="Layer_1" xmlns="http://www.w3.org/2000/svg" viewBox="0 0 50.5 53.8"><path d="M47.2,.1H3C1.2,.1-.3,1.6-.3,3.4V50.4c0,1.8,1.5,3.3,3.3,3.3H47.1c1.8,0,3.3-1.5,3.3-3.3V3.4c0-1.8-1.4-3.3-3.2-3.3Z"/><g><path d="M43.53,23.71c1.26,.24,2.09,1.45,1.85,2.72-.24,1.26-1.45,2.09-2.72,1.85-1.26-.24-2.09-1.45-1.85-2.72,.24-1.26,1.45-2.09,2.72-1.85" style="fill:#fff;"/><path d="M39.14,25.98c-.12-.44-.57-.71-1.01-.59-.44,.12-.71,.57-.59,1.01l1.83,6.96c.1,.37,.43,.62,.8,.62,.07,0,.14,0,.21-.03,.44-.12,.71-.57,.59-1.01l-1.83-6.96Z" style="fill:#fff;"/><path d="M12.57,22.65c.47-.38,.8-.93,.86-1.58,.13-1.28-.8-2.42-2.08-2.55-1.28-.13-2.42,.8-2.55,2.08-.07,.65,.14,1.26,.52,1.72l3.2,.33s.02,0,.04,0h0Z" style="fill:#fff;"/><path d="M15.85,27.86s0,0,0-.01l2.42-.43c.45-.08,.75-.51,.67-.96-.08-.45-.51-.75-.96-.67l-3.15,.55-1.65-2.87c-.1-.28-.35-.49-.67-.53l-3.97-.4c-.06,0-.11,0-.17,0-.88,.02-1.73,.63-2.1,1.54-.24,.59-.54,2,.92,3.81l-.24,2.4c0,.09,0,.17,.01,.25,0,.3,.12,.6,.35,.83l1.25,1.28h-3.19c-.69,0-1.24,.56-1.24,1.24s.56,1.24,1.24,1.24h6.13c.5,0,.95-.3,1.14-.76,.19-.46,.09-.99-.25-1.35l-.93-.96,2.29-1.76,.6,3.76c.1,.61,.62,1.04,1.22,1.04,.07,0,.13,0,.2-.02,.68-.11,1.14-.74,1.03-1.42l-.93-5.82Zm-3.05,.03l.15-1.48,.55,.95-.7,.54Z" style="fill:#fff;"/><path d="M45.82,34.15H18.42l2.16-7.97c.22,0,.42-.16,.49-.37l.11-.37c2.66,.68,5.81,1.05,8.7,1.25l.75,4.56h-4.22c-.71,0-1.29,.58-1.29,1.29s.58,1.29,1.29,1.29h5.74c.38,0,.74-.17,.98-.46,.25-.29,.35-.67,.29-1.05l-.68-4.12c2,.24,3.33,.47,5.05,.03l-.47-1.79c-.07-.27-.03-.56,.11-.8,.14-.24,.37-.42,.64-.49,.09-.02,.18-.03,.27-.03,.48,0,.9,.32,1.02,.79l.35,1.32c.51-.58,.65-1.3,.51-1.86-.14-.55-.66-.9-1.28-1.03-.13-.04-.28-.06-.43-.06-.11,0-10.11,.3-16.61-1.34l.02-.06c.04-.13,.02-.27-.04-.39-.07-.12-.18-.21-.31-.25-.05-.01-.1-.02-.14-.02-.23,0-.43,.15-.5,.37l-.02,.07c-.25-.08-.5-.16-.73-.24-.67-.24-1.41,.11-1.65,.79-.24,.67,.11,1.41,.79,1.65,.28,.1,.57,.19,.87,.29l-.1,.36c-.04,.13-.02,.27,.04,.39,.04,.07,.1,.13,.17,.18l-2.19,8.06h-.19c-.31,0-.57,.26-.57,.57s.26,.57,.57,.57h27.92c.31,0,.57-.26,.57-.57s-.26-.57-.57-.57h0Zm-25.45-8.54l.85-2.91c.03-.09,.11-.15,.2-.15,.02,0,.04,0,.06,0,.05,.02,.1,.05,.12,.1,.03,.05,.03,.1,.02,.16l-.85,2.91c-.03,.11-.15,.17-.26,.14-.05-.02-.1-.05-.12-.1-.03-.05-.03-.1-.02-.16h0Zm25.45,9.37H17.9c-.14,0-.26-.12-.26-.26s.12-.26,.26-.26h27.92c.14,0,.26,.12,.26,.26,0,.14-.12,.26-.26,.26h0Z" style="fill:#fff;"/></g></svg>