<?xml version="1.0" encoding="UTF-8"?><svg id="Layer_1" xmlns="http://www.w3.org/2000/svg" viewBox="0 0 50.5 53.8"><path d="M28.25,39.98v.68c0,.66-.54,1.19-1.19,1.19h-3.61c-.66,0-1.19-.53-1.19-1.19v-.68c-.46,.32-.83,.71-.85,1.12-.04,1.31,1.71,4.13,3.84,6.32,2.13-2.19,3.89-5.02,3.84-6.32-.01-.41-.39-.8-.84-1.12h0Z"/><path d="M24.64,5.33h1.22V39.47h-1.22V5.33Z"/><path d="M22.25,37.26v-.8c-1.76-.4-5.79-1.21-8.39-.8-1.67,.27-2.61,1.68-2.91,2.8-.31,1.13-.06,2.15,.65,2.73,1.1,.89,2.38,1.22,3.63,1.53,1.33,.34,2.71,.68,3.68,1.75,.26,.28,.53,.62,.82,.97,.94,1.17,1.78,2.12,2.79,2.53-1.95-2.28-3.55-5.03-3.49-6.95,.07-2.08,2.04-3.25,3.23-3.76h0Z"/><path d="M47.31,.12H3.19C1.38,.12-.1,1.6-.1,3.4V50.4c0,1.81,1.48,3.28,3.28,3.28H47.31c1.8,0,3.28-1.48,3.28-3.28V3.4c0-1.8-1.48-3.28-3.28-3.28h0Zm-5.02,18.91c-.22,.4-.63,.61-1.05,.61-.2,0-.4-.05-.58-.15-.58-.32-.78-1.05-.46-1.62,.25-.46,.32-.78,.23-1.04-.08-.22-.44-.79-2.01-1.36-2.62-.95-7.87-.98-10.18-.95v3.27c2.24,0,7.01,.14,9.96,1.23,2.5,.92,3.31,2.27,3.55,3.24,.27,1.1-.06,2.3-.89,3.23-.23,.26-.56,.4-.89,.4-.28,0-.57-.1-.79-.31-.49-.44-.53-1.19-.09-1.68,.11-.13,.47-.57,.35-1.06-.14-.57-.89-1.14-2.06-1.57-2.58-.95-7.04-1.08-9.13-1.09v4.09c5.15-.02,8.32,.9,9.63,2.82,1.03,1.51,.45,2.95,.38,3.11-.19,.45-.63,.72-1.09,.72-.16,0-.32-.03-.47-.1-.6-.26-.88-.94-.64-1.54,.03-.08,.13-.46-.18-.89-.4-.56-1.95-1.78-7.63-1.75v7.35c2.11-.46,5.99-1.15,8.77-.71,2.3,.37,4.2,2.15,4.84,4.54,.55,2.04,0,4.03-1.44,5.2-1.51,1.23-3.2,1.65-4.55,2-1.08,.27-2.02,.51-2.5,1.04-.23,.25-.46,.55-.72,.86-1.15,1.43-2.93,3.64-5.74,3.64-.51,0-1.06-.1-1.65-.26-.58,.16-1.13,.26-1.65,.26-2.81,0-4.59-2.22-5.74-3.64-.25-.31-.49-.61-.71-.86-.49-.54-1.42-.77-2.5-1.04-1.36-.34-3.04-.77-4.55-1.99-1.44-1.17-1.99-3.16-1.44-5.2,.64-2.39,2.54-4.17,4.84-4.54,2.77-.45,6.66,.24,8.77,.71v-7.35c-5.69-.03-7.23,1.2-7.63,1.75-.31,.43-.2,.82-.18,.89,.22,.6-.08,1.29-.68,1.53-.15,.06-.3,.09-.45,.09-.46,0-.88-.26-1.08-.71-.07-.16-.64-1.6,.38-3.11,1.31-1.92,4.49-2.84,9.63-2.82v-4.09c-2.1,0-6.56,.14-9.13,1.09-1.17,.43-1.92,1.01-2.06,1.57-.12,.48,.2,.9,.35,1.06,.44,.49,.4,1.25-.09,1.68-.23,.21-.51,.31-.79,.31-.33,0-.66-.14-.89-.4-.83-.92-1.16-2.13-.88-3.23,.24-.97,1.05-2.31,3.55-3.24,2.95-1.09,7.72-1.23,9.96-1.23v-3.27c-2.31-.04-7.56,0-10.18,.95-1.57,.57-1.93,1.14-2.01,1.35-.1,.26-.03,.58,.22,1.04,.32,.58,.11,1.3-.46,1.62-.18,.1-.38,.15-.58,.15-.42,0-.83-.22-1.04-.61-.6-1.08-.73-2.1-.38-3.03,.44-1.19,1.57-2.09,3.43-2.76,2.99-1.09,8.52-1.13,10.99-1.09v-3.64c-1.92-.05-5.88-.04-8.74,.64-2.44,.58-2.78,1.23-2.81,1.3-.07,.16,.07,.44,.16,.59,.34,.57,.15,1.3-.42,1.64-.19,.11-.4,.17-.61,.17-.41,0-.8-.21-1.03-.58-.71-1.19-.56-2.15-.31-2.74,.53-1.25,1.94-2.11,4.46-2.7,3.12-.74,7.24-.76,9.29-.71v-1.97c0-.66,.53-1.19,1.19-1.19h3.61c.66,0,1.19,.53,1.19,1.19v1.97c2.05-.05,6.17-.03,9.29,.71,2.52,.59,3.93,1.45,4.46,2.7,.25,.59,.4,1.55-.31,2.74-.23,.38-.62,.58-1.03,.58-.21,0-.42-.05-.61-.17-.57-.34-.75-1.07-.42-1.64,.09-.15,.23-.43,.17-.59-.03-.07-.37-.73-2.81-1.31-2.87-.68-6.82-.68-8.74-.64v3.64c2.47-.04,8,0,10.99,1.09,1.86,.67,2.99,1.58,3.43,2.76,.36,.94,.23,1.96-.37,3.03h0Z"/><path d="M31.48,41.02c.06,1.93-1.54,4.67-3.49,6.95,1-.41,1.84-1.36,2.79-2.53,.29-.35,.56-.69,.82-.97,.97-1.06,2.35-1.41,3.68-1.75,1.24-.31,2.53-.64,3.63-1.53,.71-.58,.95-1.6,.65-2.73-.3-1.12-1.25-2.53-2.91-2.8-2.6-.41-6.62,.39-8.38,.8v.8c1.19,.52,3.16,1.68,3.23,3.76h0Z"/></svg>