<svg id="copy" xmlns="http://www.w3.org/2000/svg" width="17.561" height="19.157" viewBox="0 0 17.561 19.157">
  <path id="Path_28487" data-name="Path 28487" d="M6.984,118.242a3.4,3.4,0,0,1-3.392-3.392v-8.182H2.2A2.2,2.2,0,0,0,0,108.863v10.776a2.2,2.2,0,0,0,2.2,2.2h9.978a2.2,2.2,0,0,0,2.2-2.2v-1.4Zm0,0" transform="translate(0 -102.677)" fill="#6c63ff"/>
  <path id="Path_28488" data-name="Path 28488" d="M140.771,2.2A2.195,2.195,0,0,0,138.576,0H130.2A2.195,2.195,0,0,0,128,2.2v9.978a2.195,2.195,0,0,0,2.2,2.2h8.381a2.195,2.195,0,0,0,2.195-2.2Zm0,0" transform="translate(-123.211)" fill="#6c63ff"/>
</svg>
