<svg xmlns="http://www.w3.org/2000/svg" width="118.139" height="118.139" viewBox="0 0 118.139 118.139">
  <g id="icon" transform="translate(-901 -211)">
    <circle id="Ellipse_44" data-name="Ellipse 44" cx="59.07" cy="59.07" r="59.07" transform="translate(901 211)" fill="#3ac591"/>
    <path id="Path_395" data-name="Path 395" d="M364.4,409.14a5.512,5.512,0,0,1-3.316-1.1l-.059-.044-12.49-9.554a5.55,5.55,0,1,1,6.754-8.809l8.09,6.2,19.116-24.939a5.548,5.548,0,0,1,7.778-1.027h0l-.119.165.122-.165a5.555,5.555,0,0,1,1.026,7.78l-22.485,29.321a5.551,5.551,0,0,1-4.415,2.165Z" transform="translate(590.64 -118.721)" fill="#fff"/>
  </g>
</svg>
