<svg xmlns="http://www.w3.org/2000/svg" width="31.277" height="37.938" viewBox="0 0 31.277 37.938">
  <g id="noun_OTP_4051175" transform="translate(-19.75 -20.359)">
    <g id="forms" transform="translate(-25.194 20.359)">
      <g id="Group_36438" data-name="Group 36438" transform="translate(44.944)">
        <g id="Group_36437" data-name="Group 36437" transform="translate(0)">
          <path id="Path_28538" data-name="Path 28538" d="M75.994,9.4,66.821.227A.774.774,0,0,0,66.273,0H48.707a3.767,3.767,0,0,0-3.763,3.763V34.175a3.767,3.767,0,0,0,3.763,3.763H72.458a3.767,3.767,0,0,0,3.763-3.763V9.948A.775.775,0,0,0,75.994,9.4ZM67.048,2.644l6.53,6.53H69.262a2.214,2.214,0,0,1-2.214-2.214Zm7.625,31.531a2.217,2.217,0,0,1-2.214,2.214H48.707a2.217,2.217,0,0,1-2.214-2.214V3.763a2.217,2.217,0,0,1,2.214-2.214H65.5V6.959a3.762,3.762,0,0,0,3.763,3.763h5.41V34.175Z" transform="translate(-44.944)" fill="#fff"/>
        </g>
      </g>
      <g id="Group_36440" data-name="Group 36440" transform="translate(51.444 22.506)">
        <g id="Group_36439" data-name="Group 36439" transform="translate(0)">
          <path id="Path_28539" data-name="Path 28539" d="M133.783,303.745h-.347a.774.774,0,1,0,0,1.548h.347a.774.774,0,0,0,0-1.548Z" transform="translate(-132.662 -303.745)" fill="#fff"/>
        </g>
      </g>
      <g id="Group_36442" data-name="Group 36442" transform="translate(54.295 22.506)">
        <g id="Group_36441" data-name="Group 36441" transform="translate(0)">
          <path id="Path_28540" data-name="Path 28540" d="M185.8,303.745H171.918a.774.774,0,1,0,0,1.548H185.8a.774.774,0,1,0,0-1.548Z" transform="translate(-171.144 -303.745)" fill="#fff"/>
        </g>
      </g>
      <g id="Group_36444" data-name="Group 36444" transform="translate(51.444 18.969)">
        <g id="Group_36443" data-name="Group 36443" transform="translate(0)">
          <path id="Path_28541" data-name="Path 28541" d="M133.783,256h-.347a.774.774,0,1,0,0,1.548h.347a.774.774,0,0,0,0-1.548Z" transform="translate(-132.662 -256)" fill="#fff"/>
        </g>
      </g>
      <g id="Group_36446" data-name="Group 36446" transform="translate(54.295 18.969)">
        <g id="Group_36445" data-name="Group 36445" transform="translate(0)">
          <path id="Path_28542" data-name="Path 28542" d="M185.8,256H171.918a.774.774,0,1,0,0,1.548H185.8a.774.774,0,1,0,0-1.548Z" transform="translate(-171.144 -256)" fill="#fff"/>
        </g>
      </g>
      <g id="Group_36448" data-name="Group 36448" transform="translate(51.444 15.431)">
        <g id="Group_36447" data-name="Group 36447" transform="translate(0)">
          <path id="Path_28543" data-name="Path 28543" d="M133.783,208.255h-.347a.774.774,0,1,0,0,1.548h.347a.774.774,0,0,0,0-1.548Z" transform="translate(-132.662 -208.255)" fill="#fff"/>
        </g>
      </g>
      <g id="Group_36450" data-name="Group 36450" transform="translate(54.295 15.431)">
        <g id="Group_36449" data-name="Group 36449" transform="translate(0)">
          <path id="Path_28544" data-name="Path 28544" d="M185.8,208.255H171.918a.774.774,0,1,0,0,1.548H185.8a.774.774,0,1,0,0-1.548Z" transform="translate(-171.144 -208.255)" fill="#fff"/>
        </g>
      </g>
    </g>
  </g>
</svg>
