<svg xmlns="http://www.w3.org/2000/svg" width="27.83" height="41.082" viewBox="0 0 27.83 41.082">
  <g id="noun_Location_2960635" transform="translate(-11 -1)">
    <path id="Path_28529" data-name="Path 28529" d="M25.353,39.432a.59.59,0,0,1-.53-.331c-.53-.8-12.523-20.011-12.523-25.047a13.053,13.053,0,0,1,26.107,0c0,5.036-11.993,24.252-12.523,25.047A.59.59,0,0,1,25.353,39.432Zm0-37.106A11.707,11.707,0,0,0,13.625,14.053c0,3.644,8.018,17.427,11.728,23.457C29.064,31.48,37.082,17.7,37.082,14.053A11.707,11.707,0,0,0,25.353,2.325Zm0,18.553a6.825,6.825,0,1,1,6.825-6.825A6.815,6.815,0,0,1,25.353,20.878Zm0-12.325a5.5,5.5,0,1,0,5.5,5.5A5.486,5.486,0,0,0,25.353,8.554Z" transform="translate(-0.439)" fill="#2c2c2c"/>
    <path id="Path_28530" data-name="Path 28530" d="M29.884,49.5c-.265.4-.464.8-.729,1.193.066.066.133.066.265.066,5.566.6,8.084,2.12,8.084,3.048,0,1.325-4.9,3.313-12.59,3.313s-12.59-1.988-12.59-3.313c0-.928,2.518-2.452,8.084-3.048.066,0,.2-.066.265-.066a11.525,11.525,0,0,0-.729-1.193C17.494,49.765,11,50.759,11,53.807c0,2.982,7.156,4.638,13.915,4.638S38.83,56.789,38.83,53.807C38.83,50.759,32.336,49.765,29.884,49.5Z" transform="translate(0 -16.363)" fill="#2c2c2c"/>
  </g>
</svg>
