<svg xmlns="http://www.w3.org/2000/svg" width="20.835" height="20.835" viewBox="0 0 20.835 20.835">
  <g id="noun_Key_241646" transform="translate(1.5 1.5)">
    <g id="Group_36401" data-name="Group 36401" transform="translate(-1.5 -1.5)">
      <g id="Group_36400" data-name="Group 36400">
        <path id="Path_28504" data-name="Path 28504" d="M0,0H20.835V20.835H0Z" fill="none"/>
        <path id="Path_28505" data-name="Path 28505" d="M10.278,13.751a6.149,6.149,0,0,1-2.2.4,6.077,6.077,0,1,1,6.077-6.077,6.149,6.149,0,0,1-.4,2.2L19.1,15.63a.788.788,0,0,1,.26.608v2.257a.82.82,0,0,1-.868.868H16.237a.788.788,0,0,1-.608-.26l-.608-.608V16.758H13.286V15.022H11.549Zm-3.5-4.806a2.17,2.17,0,1,1,2.17-2.17,2.149,2.149,0,0,1-2.17,2.17Z" transform="translate(-0.264 -0.264)" fill="#8898aa"/>
      </g>
    </g>
  </g>
</svg>
