<svg xmlns="http://www.w3.org/2000/svg" width="27.365" height="14.751" viewBox="0 0 27.365 14.751">
  <g id="noun_delivery_1334949" transform="translate(-2.5 -24.4)">
    <g id="Group_36402" data-name="Group 36402" transform="translate(2.5 24.4)">
      <path id="Path_28506" data-name="Path 28506" d="M31.878,39.979,29.17,39.6,28.075,36.81a1.947,1.947,0,0,0-1.9-1.21h-3.14a.5.5,0,0,0-.519.432l-1.037,5.733a.524.524,0,0,1-.519.432H7.187a.5.5,0,0,0-.519.432L6.38,44.272a.548.548,0,0,0,.519.634H8.022a1.956,1.956,0,0,0,1.988,2.218A3.039,3.039,0,0,0,12.8,44.906H25.338a1.956,1.956,0,0,0,1.988,2.218,3.011,3.011,0,0,0,2.795-2.218h1.354a.5.5,0,0,0,.519-.432l.605-3.429A.84.84,0,0,0,31.878,39.979ZM11.71,44.7a1.57,1.57,0,0,1-1.5,1.268A1.028,1.028,0,0,1,9.175,44.7a1.57,1.57,0,0,1,1.5-1.268A1.028,1.028,0,0,1,11.71,44.7Zm11.9-5.186.432-2.42h1.844a.76.76,0,0,1,.72.461l.778,1.959ZM29.025,44.7a1.57,1.57,0,0,1-1.5,1.268A1.015,1.015,0,0,1,26.49,44.7a1.57,1.57,0,0,1,1.5-1.268A1.028,1.028,0,0,1,29.025,44.7Z" transform="translate(-5.256 -32.373)" fill="#8898aa"/>
      <path id="Path_28507" data-name="Path 28507" d="M18.087,33.014,19.5,25.034a.548.548,0,0,0-.519-.634H5.237a.9.9,0,0,0-.893.893h0a.9.9,0,0,0,.893.893h1.5a.893.893,0,1,1,0,1.786H4.315a.9.9,0,0,0-.893.893h0a.9.9,0,0,0,.893.893h1.5a.9.9,0,0,1,.893.893.943.943,0,0,1-.893.922H3.393a.9.9,0,0,0-.893.893h0a.9.9,0,0,0,.893.893H17.539A.392.392,0,0,0,18.087,33.014Z" transform="translate(-2.5 -24.4)" fill="#8898aa"/>
    </g>
  </g>
</svg>
