<svg xmlns="http://www.w3.org/2000/svg" width="29.91" height="37.604" viewBox="0 0 29.91 37.604">
  <g id="Group_36435" data-name="Group 36435" transform="translate(0 0)">
    <path id="Path_28531" data-name="Path 28531" d="M27.193,6a15.847,15.847,0,0,0-7.665,1.749,8.151,8.151,0,0,0-4.286,5.381q-.007.02-.013.04a11.022,11.022,0,0,0,2.03,9.147,20.016,20.016,0,0,0,7.184,5.168,56.764,56.764,0,0,0,7.077,2.671v7.558a16.187,16.187,0,0,1-5.568-1.749.86.86,0,1,0-.774,1.536,17.817,17.817,0,0,0,6.343,1.936v2.457h-3q-.04,0-.08,0a.856.856,0,0,0,.08,1.709h7.7a.855.855,0,1,0,0-1.709H33.229v-2.43a7.363,7.363,0,0,0,4.58-1.736,4.393,4.393,0,0,0,1.456-4.033,5.769,5.769,0,0,0-3.1-3.859.855.855,0,1,0-.828,1.5A4.044,4.044,0,0,1,37.6,33.988a2.62,2.62,0,0,1-.935,2.47,5.691,5.691,0,0,1-3.432,1.282V25.656c6.466-.378,11.684-4.873,11.684-10.589a.855.855,0,0,0-.855-.855H20.69a.855.855,0,0,0-.855.855c0,5.728,5.2,10.233,11.684,10.589v2.7a51.024,51.024,0,0,1-6.329-2.4,18.663,18.663,0,0,1-6.6-4.687c-1.531-1.93-2.285-4.307-1.683-7.772a6.374,6.374,0,0,1,3.432-4.246A14.285,14.285,0,0,1,27.18,7.709c3.08.037,6.374.671,8.813,2.724a9.113,9.113,0,0,1-2.31.28,8.815,8.815,0,0,1-2.991-.494A2.452,2.452,0,0,1,29.1,8.831a.855.855,0,1,0-1.616.547,4.139,4.139,0,0,0,2.577,2.43,10.308,10.308,0,0,0,3.605.614,10.6,10.6,0,0,0,3.138-.4,2.428,2.428,0,0,0,1.095-.588,1.142,1.142,0,0,0,.04-1.629l-.013-.013C34.98,6.734,30.773,6.042,27.193,6Zm-5.542,9.922H43.1c-.522,4.48-5.008,8.052-10.749,8.052S22.169,20.4,21.652,15.921Z" transform="translate(-15.003 -5.999)" fill="#fff"/>
  </g>
</svg>
