<svg xmlns="http://www.w3.org/2000/svg" width="45" height="45" viewBox="0 0 45 45">
  <g id="Group_36455" data-name="Group 36455" transform="translate(-724 -101)">
    <circle id="Ellipse_4101" data-name="Ellipse 4101" cx="22.5" cy="22.5" r="22.5" transform="translate(724 101)" fill="#f7f7ff"/>
    <path id="ic_remove_red_eye_24px" d="M12,4.5A11.827,11.827,0,0,0,1,12a11.817,11.817,0,0,0,22,0A11.827,11.827,0,0,0,12,4.5ZM12,17a5,5,0,1,1,5-5A5,5,0,0,1,12,17Zm0-8a3,3,0,1,0,3,3A3,3,0,0,0,12,9Z" transform="translate(735 111.5)" fill="#6c63ff"/>
  </g>
</svg>
